{
  "asset": {
    "version": "2.0",
    "generator": "Cesium for Godot lifecycle/material example"
  },
  "extras": {"gltfUpAxis": 2},
  "scene": 0,
  "scenes": [{"nodes": [0]}],
  "nodes": [{"mesh": 0}],
  "meshes": [{"primitives": [{
    "attributes": {
      "POSITION": 0,
      "_CESIUMOVERLAY_0": 1
    },
    "indices": 2,
    "material": 0,
    "mode": 4
  }]}],
  "materials": [{"pbrMetallicRoughness": {
    "baseColorFactor": [0.12, 0.58, 0.95, 1.0],
    "metallicFactor": 0.0,
    "roughnessFactor": 0.82
  }}],
  "buffers": [{
    "uri": "data:application/octet-stream;base64,",
    "byteLength": 66
  }],
  "bufferViews": [
    {"buffer": 0, "byteOffset": 0, "byteLength": 36, "target": 34962},
    {"buffer": 0, "byteOffset": 36, "byteLength": 24, "target": 34962},
    {"buffer": 0, "byteOffset": 60, "byteLength": 6, "target": 34963}
  ],
  "accessors": [
    {
      "bufferView": 0,
      "componentType": 5126,
      "count": 3,
      "type": "VEC3",
      "min": [0, 0, 0],
      "max": [100, 0, 100]
    },
    {
      "bufferView": 1,
      "componentType": 5126,
      "count": 3,
      "type": "VEC2",
      "min": [0, 0],
      "max": [1, 1]
    },
    {
      "bufferView": 2,
      "componentType": 5123,
      "count": 3,
      "type": "SCALAR"
    }
  ]
}
